<svg width="64" height="64" viewBox="0 0 64 64" fill="none" xmlns="http://www.w3.org/2000/svg">
<rect width="64" height="64" fill="#086552"/>
<mask id="mask0_3200_113" style="mask-type:luminance" maskUnits="userSpaceOnUse" x="10" y="14" width="44" height="36">
<path d="M52.6747 15.3525L44.7778 23.2494C43.8887 24.1385 42.8032 24.7846 41.6221 25.1464C40.9063 25.3661 40.1554 25.4798 39.3931 25.4798H24.686C23.9236 25.4798 23.1728 25.3661 22.4569 25.1464C21.2758 24.7846 20.1903 24.1385 19.3013 23.2494C16.6677 20.6158 14.0367 17.9848 11.4044 15.3512C11.1589 15.1057 10.912 14.8589 10.6665 14.6133C10.7221 15.1522 10.8022 15.7312 10.9172 16.3423C11.1343 17.5118 11.4742 18.8015 12.0014 20.1558C12.2133 20.7024 12.4433 21.2258 12.6862 21.7259C13.3027 22.9948 14.0056 24.1191 14.7371 25.1089C16.1146 26.9736 17.9831 28.3693 20.0934 29.1834C21.4813 29.7184 22.9725 30.0027 24.4974 30.0027H39.5817C41.1066 30.0027 42.5978 29.7184 43.9857 29.1834C46.0959 28.3693 47.9644 26.9736 49.342 25.1089C50.0721 24.1203 50.7764 22.9948 51.3915 21.7271C51.6358 21.2271 51.8657 20.7024 52.0776 20.1558C52.6049 18.8015 52.9448 17.5118 53.1619 16.3423C53.2769 15.7312 53.357 15.1522 53.4127 14.6133C53.1658 14.8602 52.9202 15.1057 52.6747 15.3525ZM12.3063 31.3846L17.5025 36.582H25.7276L21.6157 40.694L24.814 43.8922L32.1242 36.582H46.4125L51.6113 31.3846C49.8448 29.6194 46.9811 29.6181 45.2146 31.3846L44.5414 32.0592H19.3763L18.7017 31.3846C17.8191 30.5021 16.6613 30.06 15.5047 30.06C14.3468 30.06 13.189 30.5021 12.3063 31.3846ZM33.2638 38.638L26.3414 45.4198L29.3239 48.4021C30.7789 49.8571 33.1378 49.8571 34.5928 48.4021L44.3569 38.638H33.2638Z" fill="#FFFDF1"/>
</mask>
<g mask="url(#mask0_3200_113)">
<path d="M53.4936 14.6223H10.5859V49.4847H53.4936V14.6223Z" fill="#FFFDF1"/>
</g>
</svg>
