<svg width="117" height="44" viewBox="0 0 96 36" xmlns="http://www.w3.org/2000/svg" fill="currentColor"><title>Logo</title><g clip-path="url(#clip0_752_36239)"><path d="M56.9376 17.2344H55.0656C54.8928 17.0616 54.7944 16.8024 54.7704 16.4472C54.3144 17.088 53.7 17.4072 52.8984 17.4072C51.5568 17.4072 50.7432 16.608 50.7432 15.4632C50.7432 14.3184 51.6912 13.6656 53.1312 13.4328L54.6816 13.1856V13.0752C54.6816 12.4848 54.3624 12.1896 53.7336 12.1896C53.1792 12.1896 52.7976 12.3984 52.7976 12.744C52.7976 12.78 52.7976 12.8184 52.8096 12.8544L51.1344 13.4208C51.072 13.1736 51.036 12.9768 51.036 12.8304C51.036 12.276 51.2952 11.82 51.7992 11.4768C52.3152 11.1312 52.956 10.9608 53.7312 10.9608C55.5912 10.9608 56.5248 11.736 56.5248 13.2744V15.7248C56.5248 16.3392 56.6592 16.8456 56.9304 17.2392L56.9376 17.2344ZM53.2824 15.9768C53.7 15.9768 54.0336 15.828 54.2904 15.5328C54.5496 15.2256 54.684 14.88 54.684 14.4864V14.376L53.3784 14.5968C52.824 14.6832 52.5408 14.928 52.5408 15.336C52.5408 15.6816 52.836 15.9768 53.28 15.9768H53.2824Z"></path><path d="M50.4096 14.0089V14.6377H45.8928C45.9912 15.3769 46.6056 15.8305 47.3568 15.8305C48.0096 15.8305 48.5256 15.5113 48.9072 14.8705L50.2368 15.6217C49.6584 16.8169 48.6744 17.4073 47.2824 17.4073C46.4328 17.4073 45.6936 17.1001 45.0672 16.4953C44.4528 15.8929 44.1432 15.1177 44.1432 14.1817C44.1432 13.2457 44.4504 12.4585 45.0672 11.8561C45.6816 11.2537 46.4592 10.9585 47.4072 10.9585C48.3048 10.9585 49.02 11.2537 49.5744 11.8441C50.1288 12.4225 50.412 13.1497 50.412 14.0113L50.4096 14.0089ZM47.3688 12.3841C46.692 12.3841 46.1616 12.7417 45.9648 13.3441H48.7464C48.5976 12.7417 48.0696 12.3841 47.3688 12.3841Z"></path><path d="M40.8552 12.5545H39.9696V11.1265H40.8552V9.47766H42.7008V11.1265H43.968V12.5545H42.7008V14.9665C42.7008 15.4585 42.948 15.7537 43.3776 15.7537C43.5864 15.7537 43.7832 15.7177 43.956 15.6553L44.1288 17.1937C43.7592 17.3281 43.3536 17.4025 42.8976 17.4025C42.3192 17.4025 41.8392 17.2417 41.4456 16.9105C41.052 16.5793 40.8552 16.0609 40.8552 15.3337V12.5521V12.5545Z"></path><path d="M37.1616 12.0144C39.0696 12.42 39.9192 13.2096 39.9192 14.6352C39.9192 15.4224 39.636 16.0872 39.0576 16.6176C38.4792 17.148 37.692 17.4048 36.6816 17.4048C34.6632 17.4048 33.408 16.4688 32.9016 14.6112L34.5888 13.7976C34.896 15.0288 35.5128 15.6552 36.6816 15.6552C37.4568 15.6552 37.9608 15.2736 37.9608 14.7696C37.9608 14.1288 37.3584 13.7472 36.0288 13.5024C34.2192 13.1448 33.3216 12.2832 33.3216 10.9176C33.3216 10.1664 33.6048 9.57604 34.1712 9.12004C34.7376 8.66404 35.4888 8.44324 36.4248 8.44324C38.112 8.44324 39.1704 9.17044 39.7728 10.6968L38.2824 11.5824C37.9368 10.572 37.3104 10.068 36.3864 10.068C35.6472 10.068 35.1192 10.3992 35.1192 10.8936C35.1192 11.388 35.6736 11.7072 37.1616 12.0144Z"></path><path d="M95.616 14.0089V14.6377H91.0992C91.1976 15.3769 91.812 15.8305 92.5632 15.8305C93.216 15.8305 93.732 15.5113 94.1136 14.8705L95.4432 15.6217C94.8648 16.8169 93.8808 17.4073 92.4888 17.4073C91.6392 17.4073 90.9 17.1001 90.2736 16.4953C89.6592 15.8929 89.3496 15.1177 89.3496 14.1817C89.3496 13.2457 89.6568 12.4585 90.2736 11.8561C90.888 11.2537 91.6656 10.9585 92.6136 10.9585C93.5112 10.9585 94.2264 11.2537 94.7808 11.8441C95.3352 12.4225 95.6184 13.1497 95.6184 14.0113L95.616 14.0089ZM92.5752 12.3841C91.8984 12.3841 91.3704 12.7417 91.1712 13.3441H93.9528C93.804 12.7417 93.276 12.3841 92.5728 12.3841H92.5752Z"></path><path d="M85.7304 12.6793C85.7304 12.9865 86.1624 13.1713 87.036 13.3681C88.5 13.6753 89.1168 14.2537 89.1168 15.3265C89.1168 15.9289 88.884 16.4209 88.416 16.8169C87.96 17.2105 87.3576 17.4073 86.6184 17.4073C85.2264 17.4073 84.2424 16.7665 83.688 15.4993L85.104 14.6257C85.4352 15.4753 85.9536 15.9049 86.6424 15.9049C87.1224 15.9049 87.4176 15.7201 87.4176 15.4249C87.4176 15.0673 87.0864 14.8825 86.2488 14.7241C84.9816 14.4769 84.108 13.8121 84.108 12.7657C84.108 12.2113 84.3288 11.7697 84.7728 11.4481C85.2288 11.1169 85.7688 10.9561 86.4216 10.9561C87.7632 10.9561 88.4784 11.4361 89.0304 12.5185L87.7008 13.2937C87.492 12.6169 87 12.2593 86.4456 12.2593C85.9656 12.2593 85.7304 12.3937 85.7304 12.6769V12.6793Z"></path><path d="M77.2728 14.82V11.1264H79.1184V14.412C79.1184 15.1992 79.512 15.6552 80.2008 15.6552C81.0024 15.6552 81.432 15.0024 81.432 14.0664V11.124H83.2776V17.2296H81.432V16.344C81.0264 17.0208 80.5224 17.4024 79.536 17.4024C78.8832 17.4024 78.3432 17.1696 77.9112 16.7136C77.4816 16.2456 77.2704 15.6192 77.2704 14.8176L77.2728 14.82Z"></path><path d="M75.7896 11.8177C76.4544 12.3721 76.7856 13.1593 76.7856 14.1817C76.7856 15.2041 76.452 15.9913 75.7896 16.5577C75.1248 17.1241 74.3256 17.4073 73.3896 17.4073C72.4536 17.4073 71.6664 17.1241 71.0016 16.5577C70.3488 15.9913 70.0176 15.2041 70.0176 14.1817C70.0176 13.1593 70.3512 12.3721 71.0016 11.8057C71.6664 11.2393 72.4656 10.9561 73.3896 10.9561C74.3136 10.9561 75.1248 11.2393 75.7896 11.8177ZM72.3288 15.2641C72.624 15.5233 72.9816 15.6577 73.3872 15.6577C73.7928 15.6577 74.1624 15.5233 74.4576 15.2641C74.7648 14.9929 74.9136 14.6353 74.9136 14.1817C74.9136 13.7281 74.7648 13.3705 74.4576 13.1113C74.1624 12.8401 73.8048 12.7057 73.3872 12.7057C72.9696 12.7057 72.624 12.8401 72.3288 13.1113C72.0336 13.3705 71.8848 13.7257 71.8848 14.1817C71.8848 14.6377 72.0336 14.9953 72.3288 15.2641Z"></path><path d="M69.5041 13.0729V17.2345H67.6585V13.9729C67.6585 13.1977 67.2529 12.7057 66.5137 12.7057C65.7745 12.7057 65.1961 13.3465 65.1961 14.2945V17.2369H63.3505V8.61609H65.1961V11.9761C65.7265 11.2993 66.4273 10.9537 67.2889 10.9537C68.6305 10.9537 69.5041 11.7793 69.5041 13.0705V13.0729Z"></path><path d="M39.3504 25.14H35.2008V28.4808H33.2184V19.9152H39.7056V21.6528H35.2032V23.4528H39.3528V25.1424L39.3504 25.14ZM42.2592 28.4808H40.4232V22.4112H42.2592V28.4808ZM42.3336 21.7008H40.3512V19.7424H42.3336V21.7008ZM49.0992 24.3432V28.4784H47.2632V25.1736C47.2632 24.4512 46.908 23.9736 46.1856 23.9736C45.4632 23.9736 44.9616 24.5856 44.9616 25.5528V28.4784H43.1256V22.4088H44.9616V23.2776C45.4632 22.5792 46.1112 22.2384 46.932 22.2384C48.2904 22.2384 49.0992 23.0832 49.0992 24.3432ZM55.7664 28.4808H53.9064C53.736 28.3104 53.6376 28.0536 53.6136 27.6984C53.16 28.3344 52.548 28.6536 51.7536 28.6536C50.4192 28.6536 49.6128 27.8592 49.6128 26.7192C49.6128 25.5792 50.556 24.9336 51.9864 24.7008L53.5272 24.456V24.3456C53.5272 23.7576 53.208 23.4648 52.584 23.4648C52.0344 23.4648 51.6528 23.6736 51.6528 24.0144C51.6528 24.0504 51.6528 24.0888 51.6648 24.1248L50.0016 24.6888C49.9416 24.444 49.9032 24.2472 49.9032 24.1008C49.9032 23.5512 50.16 23.0976 50.6616 22.7544C51.1752 22.4112 51.8112 22.2408 52.584 22.2408C54.432 22.2408 55.3632 23.0112 55.3632 24.5424V26.9784C55.3632 27.5904 55.4976 28.092 55.7664 28.4832V28.4808ZM52.1328 27.2328C52.548 27.2328 52.8792 27.0864 53.136 26.7912C53.3928 26.4864 53.5272 26.1432 53.5272 25.752V25.6416L52.2288 25.8624C51.6792 25.9488 51.396 26.1936 51.396 26.5968C51.396 26.94 51.6888 27.2328 52.1304 27.2328H52.1328ZM62.1744 24.3432V28.4784H60.3384V25.1736C60.3384 24.4512 59.9832 23.9736 59.2608 23.9736C58.5384 23.9736 58.0368 24.5856 58.0368 25.5528V28.4784H56.2008V22.4088H58.0368V23.2776C58.5384 22.5792 59.1864 22.2384 60.0072 22.2384C61.3656 22.2384 62.1744 23.0832 62.1744 24.3432ZM67.3128 25.9104L68.8296 26.8896C68.2416 28.0656 67.2744 28.6512 65.9304 28.6512C65.0016 28.6512 64.2288 28.3584 63.6048 27.7704C62.9928 27.1704 62.688 26.4 62.688 25.4448C62.688 24.4896 63.0072 23.7432 63.6432 23.1432C64.2792 22.5432 65.0376 22.2384 65.9328 22.2384C67.2672 22.2384 68.208 22.788 68.76 23.8896L67.2792 24.8808C66.9744 24.2448 66.5328 23.9256 65.9328 23.9256C65.112 23.9256 64.5504 24.5136 64.5504 25.4424C64.5504 26.3712 65.088 26.9592 65.9208 26.9592C66.5328 26.9592 66.9984 26.604 67.3152 25.9056L67.3128 25.9104ZM71.1864 28.4808H69.3504V22.4112H71.1864V28.4808ZM71.2608 21.7008H69.2784V19.7424H71.2608V21.7008ZM77.8944 28.4808H76.0344C75.864 28.3104 75.7656 28.0536 75.7416 27.6984C75.288 28.3344 74.676 28.6536 73.8816 28.6536C72.5472 28.6536 71.7408 27.8592 71.7408 26.7192C71.7408 25.5792 72.684 24.9336 74.1144 24.7008L75.6552 24.456V24.3456C75.6552 23.7576 75.3384 23.4648 74.712 23.4648C74.1624 23.4648 73.7832 23.6736 73.7832 24.0144C73.7832 24.0504 73.7832 24.0888 73.7952 24.1248L72.132 24.6888C72.0696 24.444 72.0336 24.2472 72.0336 24.1008C72.0336 23.5512 72.2904 23.0976 72.792 22.7544C73.3056 22.4112 73.9416 22.2408 74.7144 22.2408C76.5624 22.2408 77.4912 23.0112 77.4912 24.5424V26.9784C77.4912 27.5904 77.6256 28.092 77.8944 28.4832V28.4808ZM74.2584 27.2328C74.6736 27.2328 75.0048 27.0864 75.2616 26.7912C75.5184 26.4864 75.6528 26.1432 75.6528 25.752V25.6416L74.3568 25.8624C73.8072 25.9488 73.524 26.1936 73.524 26.5968C73.524 26.94 73.8168 27.2328 74.2584 27.2328ZM80.1768 28.4808H78.3408V19.9152H80.1768V28.4808Z"></path><path d="M59.2344 12.7417L60.8592 11.1289H62.4936V11.7553L60.9312 13.2817L62.4936 15.7153V17.2321H61.2888L59.6016 14.5849L59.232 14.9545V17.2321H57.3864V8.61609H59.232V12.7393L59.2344 12.7417ZM63.4704 17.2345H63.3504V17.0473L63.4704 17.2345Z"></path><path d="M28.9536 6.64316L23.5824 12.0144C22.9776 12.6192 22.2384 13.0584 21.4368 13.3056C20.9496 13.4544 20.4384 13.5312 19.92 13.5312H9.91915C9.40075 13.5312 8.88955 13.4544 8.40235 13.3056C7.59835 13.0584 6.86155 12.6192 6.25675 12.0144C4.46635 10.2216 2.67595 8.43116 0.887953 6.64076C0.719953 6.47276 0.551953 6.30716 0.386353 6.13916C0.424753 6.50636 0.477553 6.89996 0.556753 7.31516C0.705553 8.10956 0.935952 8.98796 1.29355 9.90956C1.43755 10.2816 1.59355 10.6368 1.75915 10.9776C2.17915 11.8416 2.65675 12.6048 3.15355 13.2792C4.08955 14.5464 5.36155 15.4968 6.79675 16.0512C7.73995 16.416 8.75515 16.608 9.79195 16.608H20.0496C21.0864 16.608 22.1016 16.4136 23.0448 16.0512C24.48 15.4968 25.7496 14.5488 26.688 13.2792C27.1848 12.6072 27.6624 11.8416 28.0824 10.98C28.248 10.6392 28.404 10.284 28.548 9.91196C28.9056 8.99036 29.1384 8.11436 29.2848 7.31756C29.364 6.90236 29.4168 6.50876 29.4552 6.14156C29.2872 6.30956 29.1192 6.47756 28.9536 6.64316ZM1.49995 17.5464L5.03275 21.0816H10.6272L7.83115 23.8776L10.0056 26.052L14.976 21.0816H24.6936L28.2288 17.5464C27.0264 16.3464 25.08 16.344 23.8776 17.5464L23.4192 18.0048H6.30715L5.84875 17.5464C5.24875 16.9464 4.46155 16.6464 3.67435 16.6464C2.88715 16.6464 2.09995 16.9464 1.49995 17.5464ZM15.7536 22.4784L11.0448 27.0912L13.0728 29.1192C14.0616 30.108 15.6672 30.108 16.656 29.1192L23.2968 22.4784H15.7536Z"></path></g></svg>
