<svg width="180" height="30" viewBox="0 0 180 30" xmlns="http://www.w3.org/2000/svg">
  <g transform="translate(0, 0) scale(0.83)" fill="#FAF5E5">
    <path d="M28.5672 6.64316L23.196 12.0144C22.5912 12.6192 21.852 13.0584 21.0504 13.3056C20.5632 13.4544 20.052 13.5312 19.5336 13.5312H9.5328C9.0144 13.5312 8.5032 13.4544 8.016 13.3056C7.212 13.0584 6.4752 12.6192 5.8704 12.0144C4.08 10.2216 2.2896 8.43116 0.5016 6.64076C0.3336 6.47276 0.1656 6.30716 0 6.13916C0.0384 6.50636 0.0912 6.89996 0.1704 7.31516C0.3192 8.10956 0.5496 8.98796 0.9072 9.90956C1.0512 10.2816 1.2072 10.6368 1.3728 10.9776C1.7928 11.8416 2.2704 12.6048 2.7672 13.2792C3.7032 14.5464 4.9752 15.4968 6.4104 16.0512C7.3536 16.416 8.3688 16.608 9.4056 16.608H19.6632C20.7 16.608 21.7152 16.4136 22.6584 16.0512C24.0936 15.4968 25.3632 14.5488 26.3016 13.2792C26.7984 12.6072 27.276 11.8416 27.696 10.98C27.8616 10.6392 28.0176 10.284 28.1616 9.91196C28.5192 8.99036 28.752 8.11436 28.8984 7.31756C28.9776 6.90236 29.0304 6.50876 29.0688 6.14156C28.9008 6.30956 28.7328 6.47756 28.5672 6.64316ZM1.1136 17.5464L4.6464 21.0816H10.2408L7.4448 23.8776L9.6192 26.052L14.5896 21.0816H24.3072L27.8424 17.5464C26.64 16.3464 24.6936 16.344 23.4912 17.5464L23.0328 18.0048H5.9208L5.4624 17.5464C4.8624 16.9464 4.0752 16.6464 3.288 16.6464C2.5008 16.6464 1.7136 16.9464 1.1136 17.5464ZM15.3672 22.4784L10.6584 27.0912L12.6864 29.1192C13.6752 30.108 15.2808 30.108 16.2696 29.1192L22.9104 22.4784H15.3672Z"/>
  </g>
  <text x="32" y="21" font-family="system-ui, -apple-system, sans-serif" font-size="16" font-weight="600" fill="#FAF5E5">Steakhouse SDK</text>
</svg>
